<svg width="121" height="229" viewBox="0 0 121 229" fill="none" xmlns="http://www.w3.org/2000/svg">
<g opacity="0.1">
<path d="M54.3852 57.4034C85.8262 110.449 151.138 133.757 209.083 112.609C215.495 110.27 222.631 113.207 225.553 119.376L237.477 144.54C240.782 151.52 237.421 159.813 230.206 162.576C211.809 169.62 192.574 173.605 172.849 174.441C149.217 175.442 125.899 171.907 103.538 163.928C81.1763 155.948 60.8895 143.923 43.2398 128.188C28.5059 115.051 16.1445 99.7977 6.37224 82.6994C2.54101 75.9943 5.19498 67.4474 12.1757 64.1376L37.3493 52.2106C43.5205 49.2884 50.9085 51.5336 54.3852 57.4034Z" fill="black"/>
</g>
</svg>
