<svg width="160" height="137" viewBox="0 0 160 137" fill="none" xmlns="http://www.w3.org/2000/svg">
<path opacity="0.05" d="M-13.3937 82.2914C48.1063 77.8109 98.0992 29.7522 105.017 -31.542C105.783 -38.3244 111.595 -43.4016 118.419 -43.2648L146.26 -42.7128C153.981 -42.5579 159.904 -35.8514 159.16 -28.1605C157.258 -8.55375 152.245 10.4395 144.195 28.4668C134.551 50.0645 120.986 69.3574 103.871 85.8123C86.7554 102.267 66.9438 115.06 44.9889 123.839C26.6592 131.167 7.49327 135.427 -12.1687 136.547C-19.8788 136.985 -26.3446 130.797 -26.1933 123.073L-25.6399 95.2226C-25.5028 88.3959 -20.1981 82.7849 -13.3937 82.2914Z" fill="black"/>
</svg>
