<svg width="324" height="49" viewBox="0 0 324 49" fill="none" xmlns="http://www.w3.org/2000/svg">
<rect x="176.567" y="16.8899" width="5.59614" height="15.2069" rx="2.79807" fill="white"/>
<rect x="188.338" y="6.75211" width="5.59614" height="35.4828" rx="2.79807" fill="white"/>
<rect x="200.11" y="10.1314" width="5.59614" height="28.7241" rx="2.79807" fill="white"/>
<rect x="211.881" y="15.2003" width="5.59614" height="18.5862" rx="2.79807" fill="white"/>
<rect x="223.652" y="18.5796" width="5.59614" height="11.8276" rx="2.79807" fill="white"/>
<rect x="235.423" y="6.75211" width="5.59614" height="35.4828" rx="2.79807" fill="white"/>
<rect x="247.194" y="11.821" width="5.59614" height="25.3448" rx="2.79807" fill="white"/>
<rect x="258.965" y="3.37277" width="5.59614" height="42.2414" rx="2.79807" fill="white"/>
<rect x="270.736" y="13.5107" width="5.59614" height="21.9655" rx="2.79807" fill="white"/>
<rect x="282.507" y="5.06244" width="5.59614" height="38.8621" rx="2.79807" fill="white"/>
<rect x="294.279" y="13.5107" width="5.59614" height="21.9655" rx="2.79807" fill="white"/>
<rect x="306.05" y="6.75211" width="5.59614" height="35.4828" rx="2.79807" fill="white"/>
<rect x="317.821" y="15.2003" width="5.59614" height="18.5862" rx="2.79807" fill="white"/>
<g opacity="0.8">
<rect x="23.5425" y="10.138" width="5.59614" height="28.7241" rx="2.79807" fill="white"/>
<rect x="35.3135" width="5.59614" height="49" rx="2.79807" fill="white"/>
<rect x="47.0847" y="6.75867" width="5.59614" height="35.4828" rx="2.79807" fill="white"/>
<rect x="58.8557" y="18.5862" width="5.59614" height="11.8276" rx="2.79807" fill="white"/>
<rect x="70.627" y="15.2069" width="5.59614" height="18.5862" rx="2.79807" fill="white"/>
<rect x="82.3979" y="10.138" width="5.59614" height="28.7241" rx="2.79807" fill="white"/>
<rect x="94.1692" y="1.68967" width="5.59614" height="45.6207" rx="2.79807" fill="white"/>
<rect x="105.94" y="16.8966" width="5.59614" height="15.2069" rx="2.79807" fill="white"/>
<rect x="117.711" y="11.8277" width="5.59614" height="25.3448" rx="2.79807" fill="white"/>
<rect x="129.483" y="11.0421" width="5.59614" height="27.2436" rx="2.79807" fill="white"/>
<rect x="141.254" y="15.8472" width="5.59614" height="17.6282" rx="2.79807" fill="white"/>
<rect x="153.025" y="3.37277" width="5.59614" height="42.2414" rx="2.79807" fill="white"/>
<rect x="164.796" y="10.1314" width="5.59614" height="28.7241" rx="2.79807" fill="white"/>
<rect x="11.7712" y="11.0421" width="5.59614" height="25.641" rx="2.79807" fill="white"/>
<rect y="19.0548" width="5.59614" height="11.218" rx="2.79807" fill="white"/>
</g>
</svg>
