<svg width="46" height="47" viewBox="0 0 46 47" fill="none" xmlns="http://www.w3.org/2000/svg">
<path d="M18.3837 5.54678C13.9199 5.54678 10.3013 9.16543 10.3013 13.6292C10.3013 18.0931 13.9199 21.7118 18.3837 21.7118C22.8475 21.7118 26.4662 18.0931 26.4662 13.6292C26.4662 9.16543 22.8475 5.54678 18.3837 5.54678Z" fill="white"/>
<path d="M23.1535 25.3076C19.9937 24.8032 16.7738 24.8032 13.614 25.3076L13.2753 25.3616C8.82297 26.0721 5.54688 29.9125 5.54688 34.4211C5.54688 36.8547 7.51965 38.8275 9.95319 38.8275H26.8142C29.2477 38.8275 31.2206 36.8547 31.2206 34.4211C31.2206 29.9125 27.9444 26.0721 23.4922 25.3616L23.1535 25.3076Z" fill="white"/>
<circle cx="32.316" cy="32.3161" r="7.23494" fill="#89D1D8"/>
<path d="M42.5745 32.738C42.5745 38.7033 37.7387 43.539 31.7735 43.539C25.8083 43.539 20.9725 38.7033 20.9725 32.7381C20.9725 26.7729 25.8083 21.9371 31.7735 21.9371C37.7387 21.9371 42.5745 26.7728 42.5745 32.738ZM39.0599 32.7381C39.0599 28.7139 35.7977 25.4517 31.7735 25.4517C27.7494 25.4517 24.4871 28.7139 24.4871 32.7381C24.4871 36.7623 27.7493 40.0245 31.7735 40.0245C35.7977 40.0245 39.0599 36.7623 39.0599 32.7381Z" fill="#89D1D8" stroke="#87CED8" stroke-width="0.5"/>
<path d="M45.0875 43.5581L45.0883 43.5588C45.7717 44.2479 45.7672 45.3605 45.0781 46.044C44.7468 46.3725 44.2985 46.5559 43.8319 46.5536C43.3654 46.5559 42.9171 46.3726 42.5859 46.0441C42.5858 46.0441 42.5857 46.044 42.5857 46.0439L36.9206 40.4543C36.9203 40.454 36.9199 40.4536 36.9196 40.4533C36.2095 39.7662 36.1902 38.6336 36.8768 37.9227C37.5638 37.2116 38.6972 37.192 39.4084 37.879L39.4084 37.8789L39.4115 37.882L45.0788 43.5493L45.0788 43.5494L45.0875 43.5581Z" fill="#89D1D8" stroke="#87CED8" stroke-width="0.5"/>
<path d="M32.3054 42.4235C37.8935 42.4235 42.4236 37.8934 42.4236 32.3053C42.4236 26.7171 37.8935 22.1871 32.3054 22.1871C26.7172 22.1871 22.1872 26.7172 22.1872 32.3053C22.1872 37.8935 26.7173 42.4235 32.3054 42.4235ZM32.3054 25.0781C36.2969 25.0781 39.5327 28.3138 39.5327 32.3053C39.5327 36.2969 36.2969 39.5326 32.3054 39.5326C28.3138 39.5326 25.0781 36.2969 25.0781 32.3053C25.0781 28.3138 28.3139 25.0781 32.3054 25.0781Z" fill="white"/>
<path d="M43.8689 45.3144C44.2531 45.3167 44.6224 45.1658 44.8952 44.8952C45.462 44.333 45.4657 43.4179 44.9036 42.8511C44.9008 42.8483 44.898 42.8455 44.8952 42.8427L39.4603 37.4078C38.8735 36.841 37.9384 36.8572 37.3716 37.4439C36.8048 38.0307 36.8209 38.9658 37.4077 39.5326L42.8426 44.8952C43.1154 45.1658 43.4847 45.3167 43.8689 45.3144Z" fill="white"/>
</svg>
