<svg width="29" height="29" viewBox="0 0 29 29" fill="none" xmlns="http://www.w3.org/2000/svg">
<path d="M21.2969 28.0937H5.4375C4.7171 28.0916 4.02683 27.8045 3.51743 27.2951C3.00803 26.7857 2.7209 26.0954 2.71875 25.375C2.71988 23.2891 3.27511 21.2409 4.32763 19.44C5.38016 17.639 6.8922 16.15 8.70906 15.1253C10.3344 16.4803 12.384 17.2212 14.5 17.2187C16.0112 17.2217 17.4986 16.8413 18.8228 16.1131C18.6588 16.4585 18.5751 16.8365 18.5781 17.2187V18.5781H17.2188C16.4977 18.5781 15.8062 18.8646 15.2963 19.3744C14.7864 19.8843 14.5 20.5758 14.5 21.2969C14.5 22.0179 14.7864 22.7095 15.2963 23.2193C15.8062 23.7292 16.4977 24.0156 17.2188 24.0156H18.5781V25.375C18.5803 26.0954 18.8674 26.7857 19.3768 27.2951C19.8862 27.8045 20.5765 28.0916 21.2969 28.0937Z" fill="#84CFDA"/>
<path d="M14.5 15.4062C18.5041 15.4062 21.75 12.1603 21.75 8.15625C21.75 4.15219 18.5041 0.90625 14.5 0.90625C10.4959 0.90625 7.25 4.15219 7.25 8.15625C7.25 12.1603 10.4959 15.4062 14.5 15.4062Z" fill="#84CFDA"/>
<path d="M25.375 20.3906H22.2031V17.2188C22.2031 16.9784 22.1076 16.7479 21.9377 16.5779C21.7677 16.408 21.5372 16.3125 21.2969 16.3125C21.0565 16.3125 20.826 16.408 20.6561 16.5779C20.4861 16.7479 20.3906 16.9784 20.3906 17.2188V20.3906H17.2188C16.9784 20.3906 16.7479 20.4861 16.5779 20.6561C16.408 20.826 16.3125 21.0565 16.3125 21.2969C16.3125 21.5372 16.408 21.7677 16.5779 21.9377C16.7479 22.1076 16.9784 22.2031 17.2188 22.2031H20.3906V25.375C20.3906 25.6154 20.4861 25.8459 20.6561 26.0158C20.826 26.1858 21.0565 26.2812 21.2969 26.2812C21.5372 26.2812 21.7677 26.1858 21.9377 26.0158C22.1076 25.8459 22.2031 25.6154 22.2031 25.375V22.2031H25.375C25.6154 22.2031 25.8459 22.1076 26.0158 21.9377C26.1858 21.7677 26.2812 21.5372 26.2812 21.2969C26.2812 21.0565 26.1858 20.826 26.0158 20.6561C25.8459 20.4861 25.6154 20.3906 25.375 20.3906Z" fill="#84CFDA"/>
</svg>
