<svg width="23" height="23" viewBox="0 0 23 23" fill="none" xmlns="http://www.w3.org/2000/svg">
<path d="M21.8186 8.37175L10.1296 19.9309C8.19286 21.8464 5.05242 21.8464 3.11565 19.9309C1.17887 18.0155 1.17887 14.9104 3.11565 12.9949L13.6362 2.59178C14.9277 1.31508 17.0205 1.31508 18.312 2.59178C19.6035 3.86845 19.6035 5.9391 18.312 7.21577L7.79136 17.6189C7.14605 18.2577 6.09924 18.2577 5.45309 17.6189C4.80777 16.981 4.80777 15.9457 5.45309 15.3069L14.8046 6.05976L13.6354 4.90378L4.2848 14.1518C2.99334 15.4285 2.99334 17.4991 4.2848 18.7757C5.57626 20.0525 7.66906 20.0525 8.96052 18.7757L19.4811 8.37258C21.4179 6.45716 21.4179 3.35205 19.4811 1.43659C17.5443 -0.478824 14.4039 -0.478824 12.4672 1.43659L1.36195 12.4177L1.40219 12.4579C-0.615072 15.0228 -0.437731 18.7306 1.94653 21.0877C4.33079 23.4449 8.07873 23.6214 10.6731 21.6255L10.7134 21.6657L22.9869 9.52856L21.8186 8.37175Z" fill="black"/>
</svg>
