<svg width="41" height="39" viewBox="0 0 41 39" fill="none" xmlns="http://www.w3.org/2000/svg">
<path d="M25.6673 21.4822L26.5423 20.625H25.3174H8.7299C8.4193 20.625 8.12344 20.504 7.90689 20.2919C7.69068 20.0801 7.57115 19.795 7.57115 19.5C7.57115 19.205 7.69068 18.9199 7.90689 18.7081C8.12344 18.496 8.4193 18.375 8.7299 18.375H25.3174H26.545L25.6668 17.5173L20.2095 12.1873L20.2088 12.1866C20.1012 12.0819 20.0162 11.9581 19.9583 11.8224C19.9004 11.6867 19.8704 11.5416 19.8699 11.3952C19.8694 11.2488 19.8983 11.1034 19.9552 10.9674C20.0122 10.8313 20.0962 10.7069 20.203 10.6015C20.3099 10.4961 20.4374 10.4118 20.5786 10.354L20.389 9.8913L20.5786 10.354C20.7199 10.2961 20.8717 10.2659 21.0254 10.2653C21.1791 10.2648 21.3312 10.2939 21.4729 10.3509C21.6142 10.4076 21.7421 10.4908 21.8496 10.5951C21.8498 10.5954 21.8501 10.5956 21.8503 10.5959L28.9647 17.5818L28.9662 17.5832C29.49 18.0932 29.786 18.7824 29.7937 19.5013C29.7896 20.2249 29.4934 20.9196 28.9662 21.433L28.9662 21.433L28.9647 21.4345L21.8501 28.4205C21.8499 28.4207 21.8497 28.421 21.8495 28.4212C21.6332 28.6315 21.3386 28.7513 21.0296 28.7513C20.7202 28.7513 20.4254 28.6312 20.209 28.4205L20.2086 28.4201C20.1004 28.3151 20.0152 28.1906 19.9572 28.0543C19.8992 27.9179 19.8695 27.7721 19.8695 27.625C19.8695 27.4779 19.8992 27.3321 19.9572 27.1957C20.0152 27.0594 20.1004 26.9349 20.2086 26.8298L20.21 26.8284L25.6673 21.4822Z" fill="white" stroke="#8DE3D8"/>
</svg>
