<svg width="19" height="19" viewBox="0 0 19 19" fill="none" xmlns="http://www.w3.org/2000/svg">
<path d="M3.95833 1.58333H4.75V0.791667C4.75 0.581704 4.83341 0.38034 4.98187 0.231874C5.13034 0.0834075 5.3317 0 5.54167 0C5.75163 0 5.95299 0.0834075 6.10146 0.231874C6.24993 0.38034 6.33333 0.581704 6.33333 0.791667V1.58333H12.6667V0.791667C12.6667 0.581704 12.7501 0.38034 12.8985 0.231874C13.047 0.0834075 13.2484 0 13.4583 0C13.6683 0 13.8697 0.0834075 14.0181 0.231874C14.1666 0.38034 14.25 0.581704 14.25 0.791667V1.58333H15.0417C16.0911 1.58459 17.0972 2.00203 17.8392 2.74409C18.5813 3.48615 18.9987 4.49224 19 5.54167V15.0417C18.9987 16.0911 18.5813 17.0972 17.8392 17.8392C17.0972 18.5813 16.0911 18.9987 15.0417 19H3.95833C2.9089 18.9987 1.90281 18.5813 1.16076 17.8392C0.418697 17.0972 0.00125694 16.0911 0 15.0417V5.54167C0.00125694 4.49224 0.418697 3.48615 1.16076 2.74409C1.90281 2.00203 2.9089 1.58459 3.95833 1.58333ZM17.4167 5.54167C17.4167 4.91178 17.1664 4.30769 16.721 3.86229C16.2756 3.41689 15.6716 3.16667 15.0417 3.16667H3.95833C3.32844 3.16667 2.72435 3.41689 2.27895 3.86229C1.83356 4.30769 1.58333 4.91178 1.58333 5.54167V6.33333H17.4167V5.54167ZM3.95833 17.4167H15.0417C15.6716 17.4167 16.2756 17.1664 16.721 16.721C17.1664 16.2756 17.4167 15.6716 17.4167 15.0417V7.91667H1.58333V15.0417C1.58333 15.6716 1.83356 16.2756 2.27895 16.721C2.72435 17.1664 3.32844 17.4167 3.95833 17.4167Z" fill="#A1A4B2"/>
</svg>
