<svg width="35" height="34" viewBox="0 0 35 34" fill="none" xmlns="http://www.w3.org/2000/svg">
<path d="M17.5012 0C7.84356 0 0.00131122 7.61839 0.00131122 17.0011C0.00714489 20.0036 0.84696 22.9421 2.40299 25.5321L0.0309327 32.445C-0.121107 32.8881 0.313154 33.3097 0.769207 33.1622L7.57549 30.9586C10.4927 32.9204 13.9464 33.9949 17.5001 34C27.1583 33.9998 35 26.3821 35 17C35 7.61771 27.1589 0.000215244 17.5012 0ZM11.6531 15.3C12.6127 15.3 13.4031 16.0679 13.4031 17C13.4031 17.9323 12.6127 18.7 11.6531 18.7C10.6936 18.7 9.90427 17.9323 9.90426 17C9.90425 16.0679 10.6936 15.3 11.6531 15.3ZM17.5012 15.3C18.4608 15.3 19.2512 16.0679 19.2512 17C19.2512 17.9323 18.4608 18.7 17.5012 18.7C16.5417 18.7 15.7512 17.9323 15.7512 17C15.7512 16.0679 16.5417 15.3 17.5012 15.3ZM23.3197 15.3C24.2793 15.3 25.0697 16.0679 25.0697 17C25.0697 17.9323 24.2793 18.7 23.3197 18.7C22.3602 18.7 21.5697 17.9323 21.5697 17C21.5697 16.0679 22.3602 15.3 23.3197 15.3Z" fill="white"/>
</svg>
