<svg width="69" height="69" viewBox="0 0 69 69" fill="none" xmlns="http://www.w3.org/2000/svg">
<path d="M16.1719 69H52.8281C54.5437 69 56.1891 68.3185 57.4022 67.1053C58.6153 65.8922 59.2969 64.2469 59.2969 62.5312V10.7812C59.2969 9.06563 58.6153 7.42028 57.4022 6.20715C56.1891 4.99403 54.5437 4.3125 52.8281 4.3125H48.1383C47.6928 3.05249 46.868 1.96139 45.7772 1.18917C44.6865 0.416951 43.3833 0.00152703 42.0469 0L26.9531 0C25.6167 0.00152703 24.3135 0.416951 23.2228 1.18917C22.132 1.96139 21.3072 3.05249 20.8617 4.3125H16.1719C14.4563 4.3125 12.8109 4.99403 11.5978 6.20715C10.3847 7.42028 9.70313 9.06563 9.70313 10.7812V62.5312C9.70312 64.2469 10.3847 65.8922 11.5978 67.1053C12.8109 68.3185 14.4563 69 16.1719 69ZM26.9531 4.3125H42.0469C42.6187 4.3125 43.1672 4.53968 43.5716 4.94405C43.976 5.34843 44.2031 5.89688 44.2031 6.46875C44.2031 7.04062 43.976 7.58907 43.5716 7.99345C43.1672 8.39782 42.6187 8.625 42.0469 8.625H26.9531C26.3813 8.625 25.8328 8.39782 25.4284 7.99345C25.0241 7.58907 24.7969 7.04062 24.7969 6.46875C24.7969 5.89688 25.0241 5.34843 25.4284 4.94405C25.8328 4.53968 26.3813 4.3125 26.9531 4.3125ZM14.0156 10.7812C14.0156 10.2094 14.2428 9.66093 14.6472 9.25655C15.0516 8.85218 15.6 8.625 16.1719 8.625H20.8617C21.3072 9.88501 22.132 10.9761 23.2228 11.7483C24.3135 12.5205 25.6167 12.936 26.9531 12.9375H42.0469C43.3833 12.936 44.6865 12.5205 45.7772 11.7483C46.868 10.9761 47.6928 9.88501 48.1383 8.625H52.8281C53.4 8.625 53.9485 8.85218 54.3528 9.25655C54.7572 9.66093 54.9844 10.2094 54.9844 10.7812V62.5312C54.9844 63.1031 54.7572 63.6516 54.3528 64.056C53.9485 64.4603 53.4 64.6875 52.8281 64.6875H16.1719C15.6 64.6875 15.0516 64.4603 14.6472 64.056C14.2428 63.6516 14.0156 63.1031 14.0156 62.5312V10.7812Z" fill="#84CFDA"/>
<path d="M29.1092 48.9145C29.3161 49.1347 29.567 49.309 29.8456 49.426C30.1242 49.543 30.4243 49.6001 30.7264 49.5937H30.8342C31.1479 49.5773 31.4541 49.4926 31.7316 49.3455C32.0091 49.1984 32.2511 48.9924 32.4406 48.742L49.6906 26.1014C50.0071 25.645 50.1353 25.0841 50.0485 24.5355C49.9617 23.987 49.6665 23.4931 49.2246 23.1567C48.7826 22.8204 48.2279 22.6676 47.676 22.7301C47.1242 22.7926 46.6177 23.0656 46.2622 23.4923L30.5539 44.1061L24.2145 37.3354C23.8228 36.918 23.2813 36.6732 22.7091 36.655C22.1369 36.6368 21.5809 36.8467 21.1634 37.2384C20.746 37.6302 20.5012 38.1717 20.483 38.7439C20.4648 39.3161 20.6747 39.872 21.0664 40.2895L29.1092 48.9145Z" fill="#84CFDA"/>
</svg>
