<svg width="28" height="32" viewBox="0 0 28 32" fill="none" xmlns="http://www.w3.org/2000/svg">
<path d="M23.3332 16.9245C22.8178 16.9245 22.3999 17.3424 22.3999 17.8578C22.3999 22.4896 18.6316 26.2578 13.9999 26.2578C9.36808 26.2578 5.59983 22.4896 5.59983 17.8578C5.59983 17.3424 5.18194 16.9245 4.66649 16.9245C4.15104 16.9245 3.73315 17.3424 3.73315 17.8578C3.73315 23.2043 7.84126 27.6085 13.0665 28.0816V29.9912H10.2665C9.75106 29.9912 9.33317 30.4091 9.33317 30.9245C9.33317 31.44 9.75106 31.8579 10.2665 31.8579H17.7332C18.2486 31.8579 18.6665 31.44 18.6665 30.9245C18.6665 30.4091 18.2486 29.9912 17.7332 29.9912H14.9332V28.0816C20.1584 27.6085 24.2666 23.2043 24.2666 17.8578C24.2666 17.3424 23.8487 16.9245 23.3332 16.9245Z" fill="white"/>
<path d="M14.0002 0C10.3977 0 7.4668 2.93086 7.4668 6.53335V17.8578C7.4668 21.4603 10.3977 24.3912 14.0002 24.3912C17.6026 24.3912 20.5335 21.4603 20.5335 17.8578V6.53335C20.5335 2.93086 17.6026 0 14.0002 0ZM18.6668 17.8578C18.6668 20.431 16.5734 22.5245 14.0002 22.5245C11.4269 22.5245 9.33347 20.431 9.33347 17.8578V6.53335C9.33347 3.96014 11.4269 1.86667 14.0002 1.86667C16.5734 1.86667 18.6668 3.96014 18.6668 6.53335V17.8578Z" fill="white"/>
<path d="M23.3332 7.52888C22.8178 7.52888 22.3999 7.94676 22.3999 8.46221V12.1956C22.3999 12.711 22.8178 13.1289 23.3332 13.1289C23.8487 13.1289 24.2666 12.711 24.2666 12.1956V8.46221C24.2666 7.94676 23.8487 7.52888 23.3332 7.52888Z" fill="white"/>
<path d="M27.0666 5.66225C26.5512 5.66225 26.1333 6.08013 26.1333 6.59558V14.0623C26.1333 14.5777 26.5512 14.9956 27.0666 14.9956C27.5821 14.9956 28 14.5777 28 14.0623V6.59558C28 6.08013 27.5821 5.66225 27.0666 5.66225Z" fill="white"/>
<path d="M3.73315 8.46221V12.1956C3.73315 12.711 4.15104 13.1289 4.66649 13.1289C5.18194 13.1289 5.59983 12.711 5.59983 12.1956V8.46221C5.59983 7.94676 5.18194 7.52888 4.66649 7.52888C4.15104 7.52888 3.73315 7.94676 3.73315 8.46221Z" fill="white"/>
<path d="M0.933336 5.66225C0.417886 5.66225 0 6.08013 0 6.59558V14.0623C0 14.5777 0.417886 14.9956 0.933336 14.9956C1.44879 14.9956 1.86667 14.5777 1.86667 14.0623V6.59558C1.86667 6.08013 1.44879 5.66225 0.933336 5.66225Z" fill="white"/>
</svg>
