<svg width="104" height="79" viewBox="0 0 104 79" fill="none" xmlns="http://www.w3.org/2000/svg">
<g opacity="0.6">
<path d="M14.031 7.06545C14.3135 7.63029 14.031 8.19514 13.4662 8.47756L12.0541 9.04241L12.6189 10.4545C12.9014 11.0194 12.6189 11.5842 12.0541 11.7254C11.4892 11.8666 10.9244 11.7254 10.7832 11.1606L10.2183 9.74847L8.80621 10.3133C8.24137 10.5957 7.67652 10.3133 7.53531 9.74847C7.3941 9.18362 7.53531 8.61877 8.10015 8.47756L9.51227 7.91272L8.94742 6.5006C8.80621 5.93575 8.94742 5.3709 9.51227 5.22969C10.0771 4.94727 10.642 5.22969 10.9244 5.79454L11.4892 7.20666L12.9014 6.64181C13.1838 6.21817 13.8898 6.5006 14.031 7.06545Z" fill="#438FFF"/>
<path d="M6.54667 73.435C6.82909 73.9998 6.54667 74.5647 5.98182 74.8471L4.56971 75.4119L5.13455 76.8241C5.41698 77.3889 5.13455 77.9538 4.56971 78.095C4.00486 78.2362 3.44001 78.095 3.2988 77.5301L2.73395 76.118L1.32184 76.6828C0.75699 76.9653 0.192144 76.6828 0.0509322 76.118C-0.0902794 75.5532 0.050932 74.9883 0.615779 74.8471L2.0279 74.2822L1.46305 72.8701C1.32184 72.3053 1.46305 71.7404 2.0279 71.5992C2.59274 71.3168 3.15759 71.5992 3.44001 72.1641L4.00486 73.5762L5.41697 73.0113C5.6994 72.5877 6.26424 72.8701 6.54667 73.435Z" fill="#438FFF"/>
</g>
<g clip-path="url(#clip0_743_8764)">
<path d="M60.3086 51C60.3086 52.564 61.5779 53.8333 63.1419 53.8333C64.7059 53.8333 65.9753 52.564 65.9753 51V17C65.9753 15.436 64.7059 14.1667 63.1419 14.1667C61.5779 14.1667 60.3086 15.436 60.3086 17V51Z" fill="#84CFDA"/>
<path d="M31.9754 17C30.4114 17 29.1421 18.2693 29.1421 19.8333V48.1667C29.1421 49.7307 30.4114 51 31.9754 51C33.5394 51 34.8088 49.7307 34.8088 48.1667V19.8333C34.8088 18.2693 33.5394 17 31.9754 17Z" fill="#84CFDA"/>
<path d="M56.0588 45.3333V22.6667C56.0588 21.1027 54.7894 19.8333 53.2254 19.8333C51.6614 19.8333 50.3921 21.1027 50.3921 22.6667V45.3333C50.3921 46.8974 51.6614 48.1667 53.2254 48.1667C54.7894 48.1667 56.0588 46.8974 56.0588 45.3333Z" fill="#84CFDA"/>
<path d="M43.3089 42.5C44.8729 42.5 46.1423 41.2307 46.1423 39.6667V28.3333C46.1423 26.7693 44.8729 25.5 43.3089 25.5C41.7449 25.5 40.4756 26.7693 40.4756 28.3333V39.6667C40.4756 41.2307 41.7449 42.5 43.3089 42.5Z" fill="#84CFDA"/>
<path d="M75.8923 45.3333V22.6667C75.8923 21.1027 74.6229 19.8333 73.0589 19.8333C71.4949 19.8333 70.2256 21.1027 70.2256 22.6667V45.3333C70.2256 46.8974 71.4949 48.1667 73.0589 48.1667C74.6229 48.1667 75.8923 46.8974 75.8923 45.3333Z" fill="#84CFDA"/>
<path d="M94.3089 17C92.7449 17 91.4756 18.2693 91.4756 19.8333V48.1667C91.4756 49.7307 92.7449 51 94.3089 51C95.8729 51 97.1423 49.7307 97.1423 48.1667V19.8333C97.1423 18.2693 95.8729 17 94.3089 17Z" fill="#84CFDA"/>
<path d="M82.9754 25.5C81.4114 25.5 80.1421 26.7693 80.1421 28.3333V39.6667C80.1421 41.2307 81.4114 42.5 82.9754 42.5C84.5394 42.5 85.8088 41.2307 85.8088 39.6667V28.3333C85.8088 26.7693 84.5394 25.5 82.9754 25.5Z" fill="#84CFDA"/>
<path d="M60.3086 65.1667C60.3086 66.7307 61.5779 68 63.1419 68C64.7059 68 65.9753 66.7307 65.9753 65.1667V62.3333C65.9753 60.7693 64.7059 59.5 63.1419 59.5C61.5779 59.5 60.3086 60.7693 60.3086 62.3333V65.1667Z" fill="#84CFDA"/>
<path d="M63.1419 8.5C64.7059 8.5 65.9753 7.23067 65.9753 5.66667V2.83333C65.9753 1.26933 64.7059 0 63.1419 0C61.5779 0 60.3086 1.26933 60.3086 2.83333V5.66667C60.3086 7.23067 61.5779 8.5 63.1419 8.5Z" fill="#84CFDA"/>
</g>
<path d="M103 18L26 52" stroke="#84CFDA" stroke-width="2"/>
<path d="M102 17L25 51" stroke="white" stroke-width="2"/>
<defs>
<clipPath id="clip0_743_8764">
<rect width="68" height="68" fill="white" transform="translate(29.1421)"/>
</clipPath>
</defs>
</svg>
