<svg width="16" height="16" viewBox="0 0 16 16" fill="none" xmlns="http://www.w3.org/2000/svg">
<path d="M11.38 0.737625L1.22002 10.8976C0.831969 11.2836 0.524333 11.7427 0.314918 12.2483C0.105504 12.754 -0.0015288 13.2962 1.64969e-05 13.8435V14.9626C1.64969e-05 15.1836 0.087814 15.3956 0.244094 15.5519C0.400375 15.7082 0.612336 15.796 0.83335 15.796H1.95252C2.49982 15.7975 3.04199 15.6905 3.54765 15.4811C4.0533 15.2716 4.5124 14.964 4.89835 14.576L15.0584 4.41596C15.5454 3.92777 15.8188 3.26635 15.8188 2.57679C15.8188 1.88723 15.5454 1.22582 15.0584 0.737625C14.5631 0.264203 13.9043 0 13.2192 0C12.534 0 11.8753 0.264203 11.38 0.737625ZM13.88 3.23763L3.72002 13.3976C3.25012 13.8647 2.61502 14.1276 1.95252 14.1293H1.66668V13.8435C1.66842 13.181 1.93132 12.5459 2.39835 12.076L12.5584 1.91596C12.7363 1.74592 12.973 1.65104 13.2192 1.65104C13.4653 1.65104 13.702 1.74592 13.88 1.91596C14.055 2.09139 14.1532 2.32903 14.1532 2.57679C14.1532 2.82455 14.055 3.0622 13.88 3.23763Z" fill="white"/>
</svg>
