<svg width="93" height="82" viewBox="0 0 93 82" fill="none" xmlns="http://www.w3.org/2000/svg">
<path d="M14.0313 10.0654C14.3137 10.6303 14.0313 11.1951 13.4664 11.4776L12.0543 12.0424L12.6192 13.4545C12.9016 14.0194 12.6192 14.5842 12.0543 14.7254C11.4895 14.8666 10.9246 14.7254 10.7834 14.1606L10.2186 12.7485L8.80646 13.3133C8.24161 13.5957 7.67676 13.3133 7.53555 12.7485C7.39434 12.1836 7.53555 11.6188 8.1004 11.4776L9.51252 10.9127L8.94767 9.5006C8.80646 8.93575 8.94767 8.3709 9.51252 8.22969C10.0774 7.94727 10.6422 8.22969 10.9246 8.79454L11.4895 10.2067L12.9016 9.64181C13.184 9.21817 13.8901 9.5006 14.0313 10.0654Z" fill="#438FFF"/>
<path d="M6.54667 76.4349C6.82909 76.9998 6.54667 77.5646 5.98182 77.8471L4.56971 78.4119L5.13455 79.824C5.41698 80.3889 5.13455 80.9537 4.56971 81.0949C4.00486 81.2361 3.44001 81.0949 3.2988 80.5301L2.73395 79.118L1.32184 79.6828C0.75699 79.9652 0.192144 79.6828 0.0509322 79.118C-0.0902794 78.5531 0.050932 77.9883 0.615779 77.8471L2.0279 77.2822L1.46305 75.8701C1.32184 75.3053 1.46305 74.7404 2.0279 74.5992C2.59274 74.3168 3.15759 74.5992 3.44001 75.164L4.00486 76.5762L5.41697 76.0113C5.6994 75.5877 6.26424 75.8701 6.54667 76.4349Z" fill="#438FFF"/>
<path d="M92.9249 59.3784C92.6146 57.5906 91.2471 56.1403 89.4939 55.5703C90.1986 54.5095 90.4682 53.2088 90.237 51.9242C89.8141 49.5861 87.6925 47.8898 85.1912 47.8898H77.9546V40.4714C77.9546 37.7439 75.7352 35.5258 73.009 35.5258C70.2815 35.5258 68.0634 37.7439 68.0634 40.4714V47.9195C66.1495 48.0641 64.3703 48.8715 62.9991 50.2427C61.4808 51.761 60.645 53.7788 60.6462 55.9264V71.9996C60.6462 76.4308 64.2516 80.0362 68.6828 80.0362H81.665C84.1588 80.0362 86.3423 78.2867 86.7454 75.9659C86.9531 74.7642 86.7219 73.55 86.1086 72.5337C88.1907 72.1578 89.8945 70.5691 90.2444 68.5475C90.462 67.2914 90.1999 66.0216 89.5236 64.9781C90.4187 64.6999 91.2248 64.1719 91.843 63.4363C92.7839 62.3173 93.1784 60.8386 92.9249 59.3784ZM73.009 37.9986C74.3727 37.9986 75.4818 39.1077 75.4818 40.4714V47.8898H70.5362V40.4714C70.5362 39.1077 71.6452 37.9986 73.009 37.9986ZM89.9489 61.8438C89.4778 62.4051 88.7879 62.7266 88.056 62.7266H86.5327H85.373H74.1687C73.4862 62.7266 72.9323 63.2793 72.9323 63.963C72.9323 64.6467 73.4862 65.1994 74.1687 65.1994H85.373C86.1049 65.1994 86.7948 65.5208 87.2659 66.0822C87.7444 66.6497 87.936 67.3754 87.8062 68.1247C87.6071 69.277 86.4709 70.145 85.1628 70.145H83.1104H81.874H74.2454C73.5629 70.145 73.009 70.6976 73.009 71.3814C73.009 72.0651 73.5629 72.6178 74.2454 72.6178H81.874C82.6059 72.6178 83.2958 72.9392 83.7669 73.4993C84.2454 74.0681 84.437 74.7938 84.3072 75.5431C84.1081 76.6954 82.9719 77.5634 81.6638 77.5634H68.6816C65.6141 77.5634 63.1178 75.0671 63.1178 71.9996V55.9264C63.1178 54.4402 63.6964 53.0431 64.7461 51.9909C65.7971 50.94 67.1942 50.3626 68.6804 50.3626H85.19C86.4734 50.3626 87.596 51.2219 87.8025 52.3631C87.9385 53.1161 87.7493 53.8468 87.2708 54.4192C86.7998 54.9843 86.1074 55.3082 85.373 55.3082H74.2454C73.5629 55.3082 73.009 55.8609 73.009 56.5446C73.009 57.2283 73.5629 57.781 74.2454 57.781H85.373H86.5327H87.8458C89.1526 57.781 90.2889 58.6489 90.4892 59.8013C90.619 60.5505 90.4274 61.2763 89.9489 61.8438Z" fill="#84CFDA"/>
<path d="M49.3195 35.5258H36.3374C33.8435 35.5258 31.6601 37.2753 31.257 39.596C31.0493 40.7978 31.2805 42.012 31.8937 43.0283C29.8117 43.4042 28.1079 44.9929 27.758 47.0144C27.5404 48.2706 27.8025 49.5404 28.4788 50.5839C27.5837 50.8621 26.7775 51.39 26.1593 52.1257C25.2172 53.2446 24.8215 54.7246 25.075 56.1836C25.3853 57.9714 26.7528 59.4217 28.506 59.9917C27.8013 61.0525 27.5317 62.3532 27.7629 63.6378C28.187 65.9758 30.3087 67.6722 32.8099 67.6722H40.0466V75.0906C40.0466 77.8181 42.2659 80.0362 44.9922 80.0362C47.7196 80.0362 49.9377 77.8181 49.9377 75.0906V67.6425C51.8505 67.4978 53.6309 66.6905 55.002 65.3181C56.5203 63.7998 57.3561 61.7832 57.3549 59.6356L57.3561 43.5624C57.3561 39.1312 53.7508 35.5258 49.3195 35.5258ZM44.9922 77.5634C43.6284 77.5634 42.5194 76.4543 42.5194 75.0906V67.6722H47.465V75.0906C47.465 76.4543 46.3559 77.5634 44.9922 77.5634ZM54.8821 59.6356C54.8821 61.1217 54.3035 62.5189 53.2538 63.5698C52.2028 64.6207 50.8057 65.1994 49.3195 65.1994H32.8099C31.5265 65.1994 30.4039 64.3401 30.1974 63.1989C30.0614 62.4459 30.2506 61.7152 30.7291 61.1428C31.2014 60.5777 31.8937 60.2538 32.6282 60.2538H43.7558C44.4382 60.2538 44.9922 59.7011 44.9922 59.0174C44.9922 58.3337 44.4382 57.781 43.7558 57.781H32.6282H31.4684H30.1554C28.8485 57.781 27.7122 56.913 27.512 55.7607C27.3821 55.0115 27.5738 54.2857 28.0523 53.7182C28.5233 53.1569 29.2132 52.8354 29.9452 52.8354H31.4684H32.6282H43.8324C44.5149 52.8354 45.0688 52.2827 45.0688 51.599C45.0688 50.9153 44.5149 50.3626 43.8324 50.3626H32.6282C31.8962 50.3626 31.2063 50.0411 30.7352 49.4798C30.2568 48.9123 30.0651 48.1865 30.1949 47.4373C30.394 46.285 31.5302 45.417 32.8384 45.417H34.8908H36.1272H43.7558C44.4382 45.417 44.9922 44.8643 44.9922 44.1806C44.9922 43.4969 44.4382 42.9442 43.7558 42.9442H36.1272C35.3952 42.9442 34.7053 42.6227 34.2342 42.0627C33.7558 41.4939 33.5641 40.7681 33.6939 40.0189C33.893 38.8666 35.0293 37.9986 36.3374 37.9986H49.3195C52.3871 37.9986 54.8833 40.4949 54.8833 43.5624L54.8821 59.6356Z" fill="#84CFDA"/>
<path d="M73.9066 16.4308C73.9066 7.87125 66.942 0.906616 58.3824 0.906616C49.8228 0.906616 42.8582 7.87125 42.8582 16.4308C42.8582 23.5599 47.5973 29.6566 54.4482 31.4407L57.3253 36.1687C57.5503 36.5371 57.9509 36.7622 58.3824 36.7622C58.8139 36.7622 59.2145 36.5371 59.4383 36.1687L62.3154 31.4407C69.1675 29.6566 73.9066 23.5587 73.9066 16.4308ZM60.4694 29.7172L58.3824 33.1469L56.2941 29.7172C56.1198 29.4291 55.8366 29.2276 55.509 29.1534C49.5162 27.8045 45.3297 22.5733 45.3297 16.4308C45.331 9.23376 51.1865 3.37941 58.3824 3.37941C65.5782 3.37941 71.4338 9.23376 71.4338 16.4308C71.4338 22.5733 67.2486 27.8045 61.2558 29.1534C60.9281 29.2263 60.645 29.4291 60.4694 29.7172Z" fill="#84CFDA"/>
<path d="M54.8104 13.2706H61.953C62.6355 13.2706 63.1894 12.7179 63.1894 12.0342C63.1894 11.3505 62.6355 10.7978 61.953 10.7978H54.8104C54.1279 10.7978 53.574 11.3505 53.574 12.0342C53.574 12.7179 54.1279 13.2706 54.8104 13.2706Z" fill="#84CFDA"/>
<path d="M65.5262 15.7434H51.2384C50.5559 15.7434 50.002 16.2961 50.002 16.9798C50.002 17.6635 50.5559 18.2162 51.2384 18.2162H65.5262C66.2087 18.2162 66.7626 17.6635 66.7626 16.9798C66.7626 16.2961 66.2087 15.7434 65.5262 15.7434Z" fill="#84CFDA"/>
<path d="M65.5262 20.689H51.2384C50.5559 20.689 50.002 21.2417 50.002 21.9254C50.002 22.6092 50.5559 23.1618 51.2384 23.1618H65.5262C66.2087 23.1618 66.7626 22.6092 66.7626 21.9254C66.7626 21.2417 66.2087 20.689 65.5262 20.689Z" fill="#84CFDA"/>
</svg>
