<svg width="99" height="80" viewBox="0 0 99 80" fill="none" xmlns="http://www.w3.org/2000/svg">
<g opacity="0.6">
<path d="M14.031 7.06545C14.3135 7.63029 14.031 8.19514 13.4662 8.47756L12.0541 9.04241L12.6189 10.4545C12.9014 11.0194 12.6189 11.5842 12.0541 11.7254C11.4892 11.8666 10.9244 11.7254 10.7832 11.1606L10.2183 9.74847L8.80621 10.3133C8.24137 10.5957 7.67652 10.3133 7.53531 9.74847C7.3941 9.18362 7.53531 8.61877 8.10015 8.47756L9.51227 7.91272L8.94742 6.5006C8.80621 5.93575 8.94742 5.3709 9.51227 5.22969C10.0771 4.94727 10.642 5.22969 10.9244 5.79454L11.4892 7.20666L12.9014 6.64181C13.1838 6.21817 13.8898 6.5006 14.031 7.06545Z" fill="#438FFF"/>
<path d="M6.54667 73.435C6.82909 73.9998 6.54667 74.5647 5.98182 74.8471L4.56971 75.4119L5.13455 76.8241C5.41698 77.3889 5.13455 77.9538 4.56971 78.095C4.00486 78.2362 3.44001 78.095 3.2988 77.5301L2.73395 76.118L1.32184 76.6828C0.75699 76.9653 0.192144 76.6828 0.0509322 76.118C-0.0902794 75.5532 0.050932 74.9883 0.615779 74.8471L2.0279 74.2822L1.46305 72.8701C1.32184 72.3053 1.46305 71.7404 2.0279 71.5992C2.59274 71.3168 3.15759 71.5992 3.44001 72.1641L4.00486 73.5762L5.41697 73.0113C5.6994 72.5877 6.26424 72.8701 6.54667 73.435Z" fill="#438FFF"/>
</g>
<path d="M42.5938 75.1562C55.5172 75.1562 66.0312 64.6422 66.0312 51.7188C66.0312 51.0502 66.0023 50.3844 65.9466 49.7227C68.8414 51.0048 72.0419 51.7188 75.4062 51.7188C88.4159 51.7188 99 41.2047 99 28.2812C99 15.3578 88.4159 4.84375 75.4062 4.84375C62.4828 4.84375 51.9688 15.3578 51.9688 28.2812C51.9688 28.9491 51.9984 29.61 52.0534 30.2639C49.1028 28.9584 45.9039 28.2812 42.5938 28.2812C29.5841 28.2812 19 38.7953 19 51.7188C19 64.6422 29.5841 75.1562 42.5938 75.1562ZM75.4062 9.53125C85.8313 9.53125 94.3125 17.9425 94.3125 28.2812C94.3125 38.62 85.8313 47.0312 75.4062 47.0312C65.0675 47.0312 56.6562 38.62 56.6562 28.2812C56.6562 17.9425 65.0675 9.53125 75.4062 9.53125ZM42.5938 32.9688C46.5197 32.9688 50.2492 34.1584 53.4242 36.413C54.8881 40.3575 57.3847 43.8039 60.5842 46.4228C61.0875 48.135 61.3438 49.913 61.3438 51.7188C61.3438 62.0575 52.9325 70.4688 42.5938 70.4688C32.1687 70.4688 23.6875 62.0575 23.6875 51.7188C23.6875 41.38 32.1687 32.9688 42.5938 32.9688Z" fill="#84CFDA"/>
<path d="M31.8157 60.6228C32.8499 61.4009 34.3193 61.1934 35.0975 60.1591C36.8921 57.7741 39.6244 56.4062 42.594 56.4062C45.5635 56.4062 48.2958 57.7741 50.0904 60.1591C50.8677 61.1922 52.3368 61.4019 53.3722 60.6228C54.4066 59.8445 54.6143 58.3752 53.836 57.3408C51.1874 53.8205 46.9847 51.7188 42.594 51.7188C38.2032 51.7188 34.0005 53.8205 31.3519 57.3409C30.5736 58.3753 30.7813 59.8447 31.8157 60.6228Z" fill="#84CFDA"/>
<path d="M75.4065 37.6562C79.7972 37.6562 83.9999 35.5545 86.6485 32.0341C87.4266 30.9997 87.2191 29.5303 86.1847 28.752C85.1505 27.9739 83.681 28.1814 82.9029 29.2158C81.1083 31.6009 78.376 32.9687 75.4065 32.9687C72.4369 32.9687 69.7046 31.6009 67.91 29.2159C67.1318 28.1816 65.6622 27.9741 64.6282 28.7522C63.5938 29.5305 63.3861 30.9998 64.1644 32.0342C66.813 35.5545 71.0157 37.6562 75.4065 37.6562Z" fill="#84CFDA"/>
<path d="M49.625 47.0312C50.9194 47.0312 51.9688 45.9819 51.9688 44.6875C51.9688 43.3931 50.9194 42.3438 49.625 42.3438C48.3306 42.3438 47.2812 43.3931 47.2812 44.6875C47.2812 45.9819 48.3306 47.0312 49.625 47.0312Z" fill="#84CFDA"/>
<path d="M35.5625 47.0312C36.8569 47.0312 37.9062 45.9819 37.9062 44.6875C37.9062 43.3931 36.8569 42.3438 35.5625 42.3438C34.2681 42.3438 33.2188 43.3931 33.2188 44.6875C33.2188 45.9819 34.2681 47.0312 35.5625 47.0312Z" fill="#84CFDA"/>
<path d="M82.4375 23.5938C83.7319 23.5938 84.7812 22.5444 84.7812 21.25C84.7812 19.9556 83.7319 18.9062 82.4375 18.9062C81.1431 18.9062 80.0938 19.9556 80.0938 21.25C80.0938 22.5444 81.1431 23.5938 82.4375 23.5938Z" fill="#84CFDA"/>
<path d="M68.375 23.5938C69.6694 23.5938 70.7188 22.5444 70.7188 21.25C70.7188 19.9556 69.6694 18.9062 68.375 18.9062C67.0806 18.9062 66.0312 19.9556 66.0312 21.25C66.0312 22.5444 67.0806 23.5938 68.375 23.5938Z" fill="#84CFDA"/>
</svg>
