<svg width="32" height="32" viewBox="0 0 32 32" fill="none" xmlns="http://www.w3.org/2000/svg">
<rect x="0.5" y="0.5" width="31" height="31" rx="4.5" stroke="white"/>
<path d="M16.4644 25.2143C16.4644 25.6285 16.1286 25.9643 15.7144 25.9643C15.3001 25.9643 14.9644 25.6285 14.9644 25.2143V6.21432C14.9644 5.80011 15.3001 5.46432 15.7144 5.46432C16.1286 5.46432 16.4644 5.80011 16.4644 6.21432V25.2143ZM12.4644 21.7143C12.4644 22.1285 12.1286 22.4643 11.7144 22.4643C11.3001 22.4643 10.9644 22.1285 10.9644 21.7143V9.71432C10.9644 9.30011 11.3001 8.96432 11.7144 8.96432C12.1286 8.96432 12.4644 9.30011 12.4644 9.71432V21.7143ZM20.4644 21.7143C20.4644 22.1285 20.1286 22.4643 19.7144 22.4643C19.3001 22.4643 18.9644 22.1285 18.9644 21.7143V9.71432C18.9644 9.30011 19.3001 8.96432 19.7144 8.96432C20.1286 8.96432 20.4644 9.30011 20.4644 9.71432V21.7143ZM8.96436 18.2143C8.96436 18.6285 8.62857 18.9643 8.21436 18.9643C7.80014 18.9643 7.46436 18.6285 7.46436 18.2143V13.2143C7.46436 12.8001 7.80014 12.4643 8.21436 12.4643C8.62857 12.4643 8.96436 12.8001 8.96436 13.2143V18.2143ZM23.9644 18.2143C23.9644 18.6285 23.6286 18.9643 23.2144 18.9643C22.8001 18.9643 22.4644 18.6285 22.4644 18.2143V13.2143C22.4644 12.8001 22.8001 12.4643 23.2144 12.4643C23.6286 12.4643 23.9644 12.8001 23.9644 13.2143V18.2143Z" fill="white" stroke="white" stroke-width="0.5" stroke-linejoin="round"/>
</svg>
