<svg width="48" height="48" viewBox="0 0 48 48" fill="none" xmlns="http://www.w3.org/2000/svg">
<circle cx="24" cy="24" r="24" fill="#EEEEEE"/>
<g clip-path="url(#clip0_412_1003)">
<path d="M36.0561 21.3266L25.8588 21.3261C25.4085 21.3261 25.0435 21.6911 25.0435 22.1413V25.3989C25.0435 25.8491 25.4085 26.2141 25.8588 26.2141H31.6012C30.9724 27.846 29.7988 29.2127 28.3014 30.081L30.75 34.3198C34.6778 32.0481 37 28.0623 37 23.6005C37 22.9652 36.9532 22.5111 36.8595 21.9997C36.7883 21.6112 36.451 21.3266 36.0561 21.3266Z" fill="#167EE6"/>
<path d="M24.5 31.1087C21.6898 31.1087 19.2364 29.5732 17.9188 27.3011L13.6802 29.7442C15.8372 33.4826 19.8779 36 24.5 36C26.7674 36 28.9069 35.3895 30.75 34.3256V34.3198L28.3014 30.081C27.1814 30.7306 25.8853 31.1087 24.5 31.1087Z" fill="#12B347"/>
<path d="M30.75 34.3256V34.3198L28.3014 30.081C27.1814 30.7306 25.8854 31.1087 24.5 31.1087V36C26.7674 36 28.907 35.3895 30.75 34.3256Z" fill="#0F993E"/>
<path d="M16.8913 23.5C16.8913 22.1148 17.2693 20.8189 17.9188 19.6989L13.6802 17.2558C12.6104 19.0931 12 21.2268 12 23.5C12 25.7732 12.6104 27.9069 13.6802 29.7442L17.9188 27.3011C17.2693 26.1812 16.8913 24.8852 16.8913 23.5Z" fill="#FFD500"/>
<path d="M24.5 15.8913C26.3326 15.8913 28.0159 16.5425 29.3307 17.6256C29.655 17.8928 30.1265 17.8735 30.4236 17.5764L32.7317 15.2683C33.0688 14.9312 33.0448 14.3794 32.6847 14.067C30.4818 12.1559 27.6156 11 24.5 11C19.8779 11 15.8372 13.5174 13.6802 17.2558L17.9188 19.6989C19.2364 17.4268 21.6898 15.8913 24.5 15.8913Z" fill="#FF4B26"/>
<path d="M29.3307 17.6256C29.655 17.8928 30.1265 17.8735 30.4236 17.5764L32.7317 15.2683C33.0688 14.9312 33.0447 14.3794 32.6847 14.067C30.4818 12.1559 27.6156 11 24.5 11V15.8913C26.3325 15.8913 28.0159 16.5425 29.3307 17.6256Z" fill="#D93F21"/>
</g>
<defs>
<clipPath id="clip0_412_1003">
<rect width="25" height="25" fill="white" transform="translate(12 11)"/>
</clipPath>
</defs>
</svg>
