<svg width="18" height="18" viewBox="0 0 18 18" fill="none" xmlns="http://www.w3.org/2000/svg">
<path fill-rule="evenodd" clip-rule="evenodd" d="M9 15.375C12.7279 15.375 15.75 12.2542 15.75 10.125C15.75 7.99571 12.7279 4.87496 9 4.87496C5.27209 4.87496 2.25 7.99789 2.25 10.125C2.25 12.252 5.27209 15.375 9 15.375Z" stroke="#A1A4B2" stroke-linejoin="round"/>
<path d="M9 12.375C10.2426 12.375 11.25 11.3676 11.25 10.125C11.25 8.88233 10.2426 7.87496 9 7.87496C7.75736 7.87496 6.75 8.88233 6.75 10.125C6.75 11.3676 7.75736 12.375 9 12.375Z" stroke="#A1A4B2" stroke-linejoin="round"/>
<path d="M4.97388 4.22475L5.94681 5.58233" stroke="#A1A4B2" stroke-linecap="round"/>
<path d="M13.3593 4.39136L12.3864 5.74894" stroke="#A1A4B2" stroke-linecap="round"/>
<path d="M9.0033 2.62495V4.87496" stroke="#A1A4B2" stroke-linecap="round"/>
<line x1="13.6945" y1="3.26833" x2="4.34517" y2="16.2888" stroke="#F4F6F6" stroke-linecap="round"/>
<line x1="14.5752" y1="3.37868" x2="4.69871" y2="16.8914" stroke="#A1A4B2" stroke-linecap="round"/>
</svg>
