<svg width="30" height="33" viewBox="0 0 30 33" fill="none" xmlns="http://www.w3.org/2000/svg">
<path d="M14.814 32.6667C22.9806 32.6667 29.6279 26.0194 29.6279 17.8527C29.6279 10.0659 23.5884 3.6845 15.9535 3.09954V2.27907H17.8527C18.4833 2.27907 18.9923 1.77008 18.9923 1.13954C18.9923 0.508993 18.4833 0 17.8527 0H11.7752C11.1447 0 10.6357 0.508993 10.6357 1.13954C10.6357 1.77008 11.1447 2.27907 11.7752 2.27907H13.6744V3.09954C6.03954 3.6845 0 10.0659 0 17.8527C0 26.0194 6.64729 32.6667 14.814 32.6667ZM14.814 5.31783C21.7271 5.31783 27.3489 10.9395 27.3489 17.8527C27.3489 24.7659 21.7271 30.3876 14.814 30.3876C7.90078 30.3876 2.27907 24.7659 2.27907 17.8527C2.27907 10.9395 7.90078 5.31783 14.814 5.31783Z" fill="white"/>
<path d="M14.8139 18.9923H20.8914C21.5219 18.9923 22.0309 18.4833 22.0309 17.8528C22.0309 17.2222 21.5219 16.7132 20.8914 16.7132H15.9534V10.2559C15.9534 9.62533 15.4444 9.11634 14.8139 9.11634C14.1833 9.11634 13.6743 9.62533 13.6743 10.2559V17.8528C13.6743 18.4833 14.1833 18.9923 14.8139 18.9923Z" fill="white"/>
</svg>
