<svg width="103" height="81" viewBox="0 0 103 81" fill="none" xmlns="http://www.w3.org/2000/svg">
<g opacity="0.6">
<path d="M14.031 2.06545C14.3135 2.63029 14.031 3.19514 13.4662 3.47756L12.0541 4.04241L12.6189 5.45452C12.9014 6.01937 12.6189 6.58422 12.0541 6.72543C11.4892 6.86664 10.9244 6.72543 10.7832 6.16058L10.2183 4.74847L8.80621 5.31331C8.24137 5.59574 7.67652 5.31331 7.53531 4.74847C7.3941 4.18362 7.53531 3.61877 8.10015 3.47756L9.51227 2.91272L8.94742 1.5006C8.80621 0.935753 8.94742 0.370904 9.51227 0.229692C10.0771 -0.0527312 10.642 0.229694 10.9244 0.794541L11.4892 2.20666L12.9014 1.64181C13.1838 1.21817 13.8898 1.5006 14.031 2.06545Z" fill="#438FFF"/>
<path d="M6.54667 68.4349C6.82909 68.9998 6.54667 69.5646 5.98182 69.8471L4.56971 70.4119L5.13455 71.824C5.41698 72.3889 5.13455 72.9537 4.56971 73.0949C4.00486 73.2361 3.44001 73.0949 3.2988 72.5301L2.73395 71.118L1.32184 71.6828C0.75699 71.9652 0.192144 71.6828 0.0509322 71.118C-0.0902794 70.5531 0.050932 69.9883 0.615779 69.8471L2.0279 69.2822L1.46305 67.8701C1.32184 67.3053 1.46305 66.7404 2.0279 66.5992C2.59274 66.3168 3.15759 66.5992 3.44001 67.164L4.00486 68.5762L5.41697 68.0113C5.6994 67.5877 6.26424 67.8701 6.54667 68.4349Z" fill="#438FFF"/>
</g>
<path fill-rule="evenodd" clip-rule="evenodd" d="M83.5 36.3125C74.9785 36.3125 68.0625 43.2285 68.0625 51.75C68.0625 60.2715 74.9785 67.1875 83.5 67.1875C92.0215 67.1875 98.9375 60.2715 98.9375 51.75C98.9375 43.2285 92.0215 36.3125 83.5 36.3125ZM83.5 41.1875C89.3305 41.1875 94.0625 45.9195 94.0625 51.75C94.0625 57.5805 89.3305 62.3125 83.5 62.3125C77.6695 62.3125 72.9375 57.5805 72.9375 51.75C72.9375 45.9195 77.6695 41.1875 83.5 41.1875Z" fill="#84CFDA"/>
<path fill-rule="evenodd" clip-rule="evenodd" d="M77.1785 48.877L86.3728 58.0712C87.325 59.0202 88.8688 59.0202 89.821 58.0712C90.77 57.119 90.77 55.5752 89.821 54.623L80.6268 45.4287C79.6745 44.4797 78.1308 44.4797 77.1785 45.4287C76.2295 46.381 76.2295 47.9247 77.1785 48.877Z" fill="#84CFDA"/>
<path fill-rule="evenodd" clip-rule="evenodd" d="M80.6268 58.0712L89.821 48.877C90.77 47.9247 90.77 46.381 89.821 45.4287C88.8688 44.4797 87.325 44.4797 86.3728 45.4287L77.1785 54.623C76.2295 55.5752 76.2295 57.119 77.1785 58.0712C78.1308 59.0202 79.6745 59.0202 80.6268 58.0712Z" fill="#84CFDA"/>
<path fill-rule="evenodd" clip-rule="evenodd" d="M92.4375 40.492C92.4375 34.3008 92.4375 30.4008 92.4375 25.75C92.4375 23.3808 91.495 21.1057 89.8213 19.4287C88.1442 17.755 85.8693 16.8125 83.5 16.8125C72.2453 16.8125 49.2547 16.8125 38 16.8125C35.6308 16.8125 33.3558 17.755 31.6788 19.4287C30.005 21.1057 29.0625 23.3808 29.0625 25.75V55C29.0625 57.3693 30.005 59.6442 31.6788 61.3213C33.3558 62.995 35.6308 63.9375 38 63.9375H74.9037C76.2492 63.9375 77.3412 62.8455 77.3412 61.5C77.3412 60.1545 76.2492 59.0625 74.9037 59.0625C62.804 59.0625 47.4217 59.0625 38 59.0625C36.921 59.0625 35.8907 58.6335 35.127 57.873C34.3665 57.1093 33.9375 56.079 33.9375 55C33.9375 47.057 33.9375 33.693 33.9375 25.75C33.9375 24.671 34.3665 23.6408 35.127 22.877C35.8907 22.1165 36.921 21.6875 38 21.6875H83.5C84.579 21.6875 85.6093 22.1165 86.373 22.877C87.1335 23.6408 87.5625 24.671 87.5625 25.75V40.492C87.5625 41.8375 88.6545 42.9295 90 42.9295C91.3455 42.9295 92.4375 41.8375 92.4375 40.492Z" fill="#84CFDA"/>
<path fill-rule="evenodd" clip-rule="evenodd" d="M90 29.8125H31.5C30.1545 29.8125 29.0625 30.9045 29.0625 32.25C29.0625 33.5955 30.1545 34.6875 31.5 34.6875H90C91.3455 34.6875 92.4375 33.5955 92.4375 32.25C92.4375 30.9045 91.3455 29.8125 90 29.8125Z" fill="#84CFDA"/>
<path fill-rule="evenodd" clip-rule="evenodd" d="M51.0033 49.3125H41.25C39.9045 49.3125 38.8125 50.4045 38.8125 51.75C38.8125 53.0955 39.9045 54.1875 41.25 54.1875H51.0033C52.3488 54.1875 53.4408 53.0955 53.4408 51.75C53.4408 50.4045 52.3488 49.3125 51.0033 49.3125Z" fill="#84CFDA"/>
</svg>
