<svg width="93" height="74" viewBox="0 0 93 74" fill="none" xmlns="http://www.w3.org/2000/svg">
<g opacity="0.6">
<path d="M14.031 2.06545C14.3135 2.63029 14.031 3.19514 13.4662 3.47756L12.0541 4.04241L12.6189 5.45452C12.9014 6.01937 12.6189 6.58422 12.0541 6.72543C11.4892 6.86664 10.9244 6.72543 10.7832 6.16058L10.2183 4.74847L8.80621 5.31331C8.24137 5.59574 7.67652 5.31331 7.53531 4.74847C7.3941 4.18362 7.53531 3.61877 8.10015 3.47756L9.51227 2.91272L8.94742 1.5006C8.80621 0.935753 8.94742 0.370904 9.51227 0.229692C10.0771 -0.0527312 10.642 0.229694 10.9244 0.794541L11.4892 2.20666L12.9014 1.64181C13.1838 1.21817 13.8898 1.5006 14.031 2.06545Z" fill="#438FFF"/>
<path d="M6.54667 68.4349C6.82909 68.9998 6.54667 69.5646 5.98182 69.8471L4.56971 70.4119L5.13455 71.824C5.41698 72.3889 5.13455 72.9537 4.56971 73.0949C4.00486 73.2361 3.44001 73.0949 3.2988 72.5301L2.73395 71.118L1.32184 71.6828C0.75699 71.9652 0.192144 71.6828 0.0509322 71.118C-0.0902794 70.5531 0.050932 69.9883 0.615779 69.8471L2.0279 69.2822L1.46305 67.8701C1.32184 67.3053 1.46305 66.7404 2.0279 66.5992C2.59274 66.3168 3.15759 66.5992 3.44001 67.164L4.00486 68.5762L5.41697 68.0113C5.6994 67.5877 6.26424 67.8701 6.54667 68.4349Z" fill="#438FFF"/>
</g>
<path fill-rule="evenodd" clip-rule="evenodd" d="M77.4575 33.7907C69.246 33.7907 62.5815 40.4551 62.5815 48.6667C62.5815 56.8782 69.246 63.5427 77.4575 63.5427C85.6691 63.5427 92.3335 56.8782 92.3335 48.6667C92.3335 40.4551 85.6691 33.7907 77.4575 33.7907ZM77.4575 38.4884C83.0759 38.4884 87.6358 43.0483 87.6358 48.6667C87.6358 54.2851 83.0759 58.845 77.4575 58.845C71.8391 58.845 67.2792 54.2851 67.2792 48.6667C67.2792 43.0483 71.8391 38.4884 77.4575 38.4884Z" fill="#84CFDA"/>
<path fill-rule="evenodd" clip-rule="evenodd" d="M71.366 51.8924L74.4978 55.0242C74.9739 55.5002 75.6253 55.7477 76.2955 55.7101C76.9625 55.6694 77.5858 55.3499 77.9992 54.8238L83.9965 47.2637C84.8014 46.2458 84.6291 44.7676 83.6144 43.9628C82.5997 43.1579 81.1184 43.327 80.3135 44.3448L75.9572 49.8411L74.6889 48.5727C73.7712 47.6551 72.2836 47.6551 71.366 48.5727C70.4516 49.4872 70.4516 50.978 71.366 51.8924Z" fill="#84CFDA"/>
<path fill-rule="evenodd" clip-rule="evenodd" d="M86.0698 37.8182C86.0698 31.8521 86.0698 28.094 86.0698 23.6124C86.0698 21.3293 85.1616 19.1371 83.5487 17.5211C81.9327 15.9082 79.7404 15 77.4574 15C66.612 15 44.4578 15 33.6124 15C31.3293 15 29.1371 15.9082 27.5211 17.5211C25.9082 19.1371 25 21.3293 25 23.6124V51.7985C25 54.0815 25.9082 56.2738 27.5211 57.8898C29.1371 59.5026 31.3293 60.4109 33.6124 60.4109H69.1738C70.4704 60.4109 71.5226 59.3586 71.5226 58.062C71.5226 56.7655 70.4704 55.7132 69.1738 55.7132C57.5142 55.7132 42.6914 55.7132 33.6124 55.7132C32.5727 55.7132 31.5799 55.2998 30.8439 54.567C30.1111 53.831 29.6977 52.8382 29.6977 51.7985C29.6977 44.1444 29.6977 31.2665 29.6977 23.6124C29.6977 22.5727 30.1111 21.5799 30.8439 20.8439C31.5799 20.1111 32.5727 19.6977 33.6124 19.6977H77.4574C78.4971 19.6977 79.4899 20.1111 80.2259 20.8439C80.9587 21.5799 81.3721 22.5727 81.3721 23.6124V37.8182C81.3721 39.1147 82.4244 40.167 83.7209 40.167C85.0175 40.167 86.0698 39.1147 86.0698 37.8182Z" fill="#84CFDA"/>
<path fill-rule="evenodd" clip-rule="evenodd" d="M83.7209 27.5272H27.3488C26.0523 27.5272 25 28.5794 25 29.876C25 31.1726 26.0523 32.2248 27.3488 32.2248H83.7209C85.0175 32.2248 86.0698 31.1726 86.0698 29.876C86.0698 28.5794 85.0175 27.5272 83.7209 27.5272Z" fill="#84CFDA"/>
<path fill-rule="evenodd" clip-rule="evenodd" d="M46.1428 46.3179H36.7443C35.4478 46.3179 34.3955 47.3702 34.3955 48.6667C34.3955 49.9633 35.4478 51.0155 36.7443 51.0155H46.1428C47.4394 51.0155 48.4917 49.9633 48.4917 48.6667C48.4917 47.3702 47.4394 46.3179 46.1428 46.3179Z" fill="#84CFDA"/>
</svg>
