<svg width="8" height="9" viewBox="0 0 8 9" fill="none" xmlns="http://www.w3.org/2000/svg">
<path d="M7.63536 5.08389L1.77303 8.80646C1.08221 9.24578 3.93217e-07 8.88873 3.93217e-07 8.22199V0.776849C-0.000175869 0.627632 0.0589098 0.481541 0.170182 0.356071C0.281454 0.230601 0.440196 0.13107 0.627397 0.0693975C0.814598 0.00772521 1.02232 -0.0134742 1.2257 0.00833794C1.42907 0.0301501 1.61947 0.0940491 1.7741 0.192383L7.63429 3.91496C7.74916 3.98781 7.84121 4.07766 7.90429 4.17846C7.96737 4.27927 8 4.3887 8 4.49942C8 4.61014 7.96737 4.71957 7.90429 4.82038C7.84121 4.92119 7.74916 5.01103 7.63429 5.08389H7.63536Z" fill="#3F414E"/>
</svg>
