<svg width="129" height="81" viewBox="0 0 129 81" fill="none" xmlns="http://www.w3.org/2000/svg">
<g opacity="0.6">
<path d="M14.031 9.06545C14.3135 9.63029 14.031 10.1951 13.4662 10.4776L12.0541 11.0424L12.6189 12.4545C12.9014 13.0194 12.6189 13.5842 12.0541 13.7254C11.4892 13.8666 10.9244 13.7254 10.7832 13.1606L10.2183 11.7485L8.80621 12.3133C8.24137 12.5957 7.67652 12.3133 7.53531 11.7485C7.3941 11.1836 7.53531 10.6188 8.10015 10.4776L9.51227 9.91272L8.94742 8.5006C8.80621 7.93575 8.94742 7.3709 9.51227 7.22969C10.0771 6.94727 10.642 7.22969 10.9244 7.79454L11.4892 9.20666L12.9014 8.64181C13.1838 8.21817 13.8898 8.5006 14.031 9.06545Z" fill="#438FFF"/>
<path opacity="0.2" d="M128.547 1.94655C128.829 2.5114 128.547 3.07624 127.982 3.35867L126.57 3.92351L127.135 5.33563C127.417 5.90047 127.135 6.46532 126.57 6.60653C126.005 6.74774 125.44 6.60653 125.299 6.04169L124.734 4.62957L123.322 5.19442C122.757 5.47684 122.192 5.19442 122.051 4.62957C121.91 4.06472 122.051 3.49988 122.616 3.35867L124.028 2.79382L123.463 1.3817C123.322 0.816856 123.463 0.252007 124.028 0.110796C124.593 -0.171628 125.158 0.110798 125.44 0.675644L126.005 2.08776L127.417 1.52291C127.699 1.09928 128.405 1.3817 128.547 1.94655Z" fill="#438FFF"/>
<path d="M6.54667 75.435C6.82909 75.9998 6.54667 76.5647 5.98182 76.8471L4.56971 77.4119L5.13455 78.8241C5.41698 79.3889 5.13455 79.9538 4.56971 80.095C4.00486 80.2362 3.44001 80.095 3.2988 79.5301L2.73395 78.118L1.32184 78.6828C0.75699 78.9653 0.192144 78.6828 0.0509322 78.118C-0.0902794 77.5532 0.050932 76.9883 0.615779 76.8471L2.0279 76.2822L1.46305 74.8701C1.32184 74.3053 1.46305 73.7404 2.0279 73.5992C2.59274 73.3168 3.15759 73.5992 3.44001 74.1641L4.00486 75.5762L5.41697 75.0113C5.6994 74.5877 6.26424 74.8701 6.54667 75.435Z" fill="#438FFF"/>
</g>
<path d="M60.1665 60C60.1665 61.564 61.4358 62.8333 62.9998 62.8333C64.5638 62.8333 65.8332 61.564 65.8332 60V26C65.8332 24.436 64.5638 23.1667 62.9998 23.1667C61.4358 23.1667 60.1665 24.436 60.1665 26V60Z" fill="#84CFDA"/>
<path d="M31.8333 26C30.2693 26 29 27.2693 29 28.8333V57.1667C29 58.7307 30.2693 60 31.8333 60C33.3973 60 34.6667 58.7307 34.6667 57.1667V28.8333C34.6667 27.2693 33.3973 26 31.8333 26Z" fill="#84CFDA"/>
<path d="M55.9167 54.3333V31.6667C55.9167 30.1027 54.6473 28.8333 53.0833 28.8333C51.5193 28.8333 50.25 30.1027 50.25 31.6667V54.3333C50.25 55.8973 51.5193 57.1667 53.0833 57.1667C54.6473 57.1667 55.9167 55.8973 55.9167 54.3333Z" fill="#84CFDA"/>
<path d="M43.1668 51.5C44.7308 51.5 46.0002 50.2307 46.0002 48.6667V37.3333C46.0002 35.7693 44.7308 34.5 43.1668 34.5C41.6028 34.5 40.3335 35.7693 40.3335 37.3333V48.6667C40.3335 50.2307 41.6028 51.5 43.1668 51.5Z" fill="#84CFDA"/>
<path d="M75.7502 54.3333V31.6667C75.7502 30.1027 74.4808 28.8333 72.9168 28.8333C71.3528 28.8333 70.0835 30.1027 70.0835 31.6667V54.3333C70.0835 55.8973 71.3528 57.1667 72.9168 57.1667C74.4808 57.1667 75.7502 55.8973 75.7502 54.3333Z" fill="#84CFDA"/>
<path d="M94.1668 26C92.6028 26 91.3335 27.2693 91.3335 28.8333V57.1667C91.3335 58.7307 92.6028 60 94.1668 60C95.7308 60 97.0002 58.7307 97.0002 57.1667V28.8333C97.0002 27.2693 95.7308 26 94.1668 26Z" fill="#84CFDA"/>
<path d="M82.8333 34.5C81.2693 34.5 80 35.7693 80 37.3333V48.6667C80 50.2307 81.2693 51.5 82.8333 51.5C84.3973 51.5 85.6667 50.2307 85.6667 48.6667V37.3333C85.6667 35.7693 84.3973 34.5 82.8333 34.5Z" fill="#84CFDA"/>
<path d="M60.1665 74.1667C60.1665 75.7307 61.4358 77 62.9998 77C64.5638 77 65.8332 75.7307 65.8332 74.1667V71.3333C65.8332 69.7693 64.5638 68.5 62.9998 68.5C61.4358 68.5 60.1665 69.7693 60.1665 71.3333V74.1667Z" fill="#84CFDA"/>
<path d="M62.9998 17.5C64.5638 17.5 65.8332 16.2307 65.8332 14.6667V11.8333C65.8332 10.2693 64.5638 9 62.9998 9C61.4358 9 60.1665 10.2693 60.1665 11.8333V14.6667C60.1665 16.2307 61.4358 17.5 62.9998 17.5Z" fill="#84CFDA"/>
</svg>
