<svg width="21" height="20" viewBox="0 0 21 20" fill="none" xmlns="http://www.w3.org/2000/svg">
<path d="M10.2322 0C15.7175 0 20.1641 4.20819 20.1641 9.39926C20.1641 11.849 19.1738 14.0799 17.5514 15.7529L20.7422 18.7636C21.0413 19.0459 21.0419 19.5043 20.7436 19.7873C20.4724 20.0446 20.0475 20.0685 19.7478 19.8586L19.6619 19.7886L16.4334 16.7417C14.734 18.0288 12.5781 18.7985 10.2322 18.7985C4.74697 18.7985 0.300293 14.5903 0.300293 9.39926C0.300293 4.20819 4.74697 0 10.2322 0ZM10.2322 1.44774C5.59184 1.44774 1.83008 5.00776 1.83008 9.39926C1.83008 13.7908 5.59184 17.3508 10.2322 17.3508C14.8726 17.3508 18.6344 13.7908 18.6344 9.39926C18.6344 5.00776 14.8726 1.44774 10.2322 1.44774Z" fill="#271E4A"/>
</svg>
