<svg width="37" height="22" viewBox="0 0 37 22" fill="none" xmlns="http://www.w3.org/2000/svg">
<path d="M6.16589 8.21283L6.00364 8.03806L6.17055 7.86775C6.70238 7.32507 7.02668 6.59734 7.02668 5.79932C7.02668 4.14135 5.6228 2.77607 3.87739 2.77607C2.13196 2.77607 0.727833 4.14137 0.727833 5.79932C0.727833 7.23633 1.78167 8.4518 3.2007 8.75133L3.37489 8.7881L3.39711 8.96473C3.75812 11.8338 4.51945 15.4111 6.10667 17.8273L6.14772 17.8898V17.9646V20.9867C6.14772 21.3994 6.49788 21.75 6.94986 21.75H29.7328C30.1848 21.75 30.5349 21.3994 30.5349 20.9867V17.9646V17.8898L30.576 17.8273C32.1632 15.4111 32.9245 11.8335 33.2856 8.96473L33.3078 8.78807L33.482 8.75133C34.901 8.45205 35.9548 7.23636 35.9548 5.79932C35.9548 4.14137 34.5507 2.77607 32.8053 2.77607C31.0598 2.77607 29.6557 4.14137 29.6557 5.79932C29.6557 6.59728 29.9802 7.32503 30.5121 7.86775L30.679 8.03806L30.5168 8.21283C29.4487 9.36328 27.8989 10.0881 26.1776 10.0881C23.3928 10.0881 21.0514 8.19208 20.4838 5.65631L20.4528 5.5181L20.5555 5.42051C21.134 4.87049 21.4909 4.1103 21.4909 3.27326C21.4909 1.61531 20.0868 0.25 18.3413 0.25C16.5959 0.25 15.1918 1.61531 15.1918 3.27326C15.1918 4.11034 15.5484 4.8705 16.1271 5.42047L16.2298 5.51806L16.1989 5.65631C15.6312 8.19208 13.2898 10.0881 10.5051 10.0881C8.78373 10.0881 7.23396 9.36328 6.16589 8.21283ZM28.9307 19.9736V20.2236H28.6807H8.002H7.752V19.9736V18.6764V18.4264H8.002H28.6807H28.9307V18.6764V19.9736ZM7.528 16.9H7.38795L7.3148 16.7806C6.17916 14.9264 5.53731 12.3454 5.17163 10.0446L5.06528 9.37536L5.58078 9.81512C6.89209 10.9338 8.61697 11.6142 10.5051 11.6142C13.8945 11.6142 16.7541 9.42152 17.6461 6.44432L17.7071 6.24071L17.9179 6.26816C18.0571 6.2863 18.1984 6.29625 18.3413 6.29625C18.4843 6.29625 18.6256 6.2863 18.7648 6.26816L18.9756 6.24071L19.0366 6.44432C19.9285 9.42152 22.7882 11.6142 26.1776 11.6142C28.0652 11.6142 29.789 10.9343 31.1003 9.81663L31.6158 9.37733L31.5094 10.0462C31.1435 12.3472 30.5016 14.9284 29.3676 16.7805L29.2945 16.9H29.1544H7.528ZM3.87739 4.30217C4.72067 4.30217 5.4224 4.96487 5.4224 5.79932C5.4224 6.63385 4.7206 7.29622 3.87739 7.29622C3.03425 7.29622 2.33212 6.63391 2.33212 5.79932C2.33212 4.9648 3.03418 4.30217 3.87739 4.30217ZM18.3413 1.7761C19.1845 1.7761 19.8866 2.43873 19.8866 3.27326C19.8866 4.10785 19.1845 4.77015 18.3413 4.77015C17.4981 4.77015 16.7963 4.10778 16.7963 3.27326C16.7963 2.4388 17.4981 1.7761 18.3413 1.7761ZM32.8053 4.30217C33.6485 4.30217 34.3506 4.9648 34.3506 5.79932C34.3506 6.63391 33.6484 7.29622 32.8053 7.29622C31.9621 7.29622 31.2603 6.63385 31.2603 5.79932C31.2603 4.96487 31.962 4.30217 32.8053 4.30217Z" fill="#3F414E" stroke="white" stroke-width="0.5"/>
</svg>
